<svg id="Capa_1" enable-background="new 0 0 512.002 512.002" height="512" viewBox="0 0 512.002 512.002" width="512" xmlns="http://www.w3.org/2000/svg"><g id="XMLID_6_"><g><g><path d="m376.001 382-30 120h-180l-30-120zm-110 60c0-5.52-4.48-10-10-10s-10 4.48-10 10 4.48 10 10 10 10-4.48 10-10z" fill="#eefaff"/></g><g><path d="m406.001 472v30h-60l13.82-55.26c4.67-3 10.22-4.74 16.18-4.74 16.57 0 30 13.43 30 30z" fill="#fce8d0"/></g><g><path d="m152.181 446.74 13.82 55.26h-60v-30c0-16.57 13.43-30 30-30 5.96 0 11.51 1.74 16.18 4.74z" fill="#fce8d0"/></g><g><circle cx="256.001" cy="257" fill="#fce8d0" r="45"/></g><g><path d="m364.071 129.03c22.92 53.49 76.05 90.97 137.93 90.97-36.77 18.39-60 55.97-60 97.08v82.92h-70.5l4.5-18h-30c0-33.14-26.86-60-60-60h-60c-33.14 0-60 26.86-60 60h-30l4.5 18h-70.5v-82.92c0-41.11-23.23-78.69-60-97.08 82.84 0 150-67.16 150-150v-60h132.04c-9.44 12.54-15.04 28.13-15.04 45 0 41.35 33.65 75 75 75 4.1 0 8.13-.33 12.06-.97zm-63.07 127.97c0-24.85-20.15-45-45-45s-45 20.15-45 45 20.15 45 45 45 45-20.15 45-45z" fill="#eefaff"/></g><g><path d="m364.071 129.03h-.01c-3.93.64-7.96.97-12.06.97-41.35 0-75-33.65-75-75 0-16.87 5.6-32.46 15.04-45h59.96v60c0 20.96 4.3 40.91 12.07 59.03z" fill="#ffda8f"/></g><g><path d="m70.001 317.08v82.92h-60v-180c36.77 18.39 60 55.97 60 97.08z" fill="#ff7b79"/></g><g><path d="m502.001 220v180h-60v-82.92c0-41.11 23.23-78.69 60-97.08z" fill="#ff7b79"/></g><g><path d="m502.001 220c-61.88 0-115.01-37.48-137.93-90.97-7.77-18.12-12.07-38.07-12.07-59.03v-60h150z" fill="#ff7b79"/></g><g><path d="m10.001 220v-210h150v60c0 82.84-67.16 150-150 150z" fill="#ff7b79"/></g><g><path d="m346.001 382h-180c0-33.14 26.86-60 60-60h60c33.14 0 60 26.86 60 60z" fill="#a0c8ff"/></g><g><circle cx="256.001" cy="442" r="10"/></g></g><g><path d="m502.001 0h-492c-5.523 0-10 4.478-10 10v390c0 5.522 4.477 10 10 10h122.692l5.52 22.079c-.736-.04-1.472-.079-2.212-.079-22.056 0-40 17.944-40 40v30c0 5.522 4.477 10 10 10h105c5.523 0 10-4.478 10-10s-4.477-10-10-10h-37.192l-25-100h214.385l-25 100h-37.192c-5.522 0-10 4.478-10 10s4.478 10 10 10h44.976c.01 0 .021.002.032.002.016 0 .031-.002.046-.002h59.946c5.522 0 10-4.478 10-10v-30c0-22.056-17.944-40-40-40-.74 0-1.476.038-2.212.079l5.52-22.079h122.692c5.522 0 10-4.478 10-10v-390c-.001-5.522-4.479-10-10.001-10zm-10 193.428c-8.864-11.599-16.396-24.166-22.498-37.571-2.289-5.027-8.221-7.248-13.244-4.959-5.027 2.288-7.247 8.218-4.959 13.244 7.144 15.694 16.063 30.348 26.633 43.786-46.142-8.015-85.784-38.763-104.671-82.84-7.472-17.423-11.261-35.958-11.261-55.088v-50h130zm-194.74-173.428h44.74v50c0 17.158 2.683 33.901 7.966 49.948-34.901-1.081-62.966-29.79-62.966-64.948 0-12.555 3.537-24.556 10.26-35zm-147.26 0v50c0 68.993-50.161 126.489-115.932 137.93 10.57-13.438 19.488-28.092 26.633-43.786 2.289-5.026.069-10.956-4.958-13.245-5.026-2.287-10.957-.069-13.245 4.958-6.104 13.406-13.635 25.974-22.499 37.572v-173.429zm-90 370h-40v-152.211c25.013 18.369 40 47.468 40 79.291zm56 102v-20c0-11.028 8.972-20 20-20 2.618 0 5.18.52 7.567 1.498l9.625 38.502zm61.006-120c4.646-22.795 24.847-40 48.994-40h60c24.146 0 44.348 17.205 48.994 40zm198.994 80c11.028 0 20 8.972 20 20v20h-37.192l9.626-38.502c2.386-.978 4.948-1.498 7.566-1.498zm7.882-76.154c-1.895-2.427-4.803-3.846-7.882-3.846h-20.726c-4.868-33.877-34.072-60-69.274-60h-60c-35.202 0-64.406 26.123-69.274 60h-20.726c-3.079 0-5.987 1.419-7.882 3.846-1.896 2.428-2.566 5.592-1.82 8.58l1.394 5.574h-47.692v-72.92c0-22.029-6.122-43.578-17.705-62.318-6.381-10.324-14.273-19.54-23.363-27.389 74.461-13.656 131.068-79.025 131.068-157.373v-50h104.542c-4.956 10.904-7.542 22.749-7.542 35 0 46.869 38.131 85 85 85 2.004 0 4.009-.083 6.007-.224 22.419 46.268 65.352 78.493 115.064 87.594-9.091 7.85-16.984 17.067-23.366 27.392-11.583 18.74-17.705 40.29-17.705 62.318v72.92h-47.692l1.394-5.574c.746-2.988.075-6.153-1.82-8.58zm68.118-58.766c0-31.823 14.988-60.922 40-79.291v152.211h-40z"/><path d="m256.001 202c-30.327 0-55 24.673-55 55s24.673 55 55 55 55-24.673 55-55-24.673-55-55-55zm0 90c-19.299 0-35-15.701-35-35s15.701-35 35-35 35 15.701 35 35-15.701 35-35 35z"/><path d="m352.001 150c-5.522 0-10 4.478-10 10v30c0 5.522 4.478 10 10 10s10-4.478 10-10v-30c0-5.522-4.478-10-10-10z"/><path d="m217.001 65h30c5.522 0 10-4.478 10-10s-4.478-10-10-10h-30c-5.523 0-10 4.478-10 10s4.477 10 10 10z"/><path d="m249.47 157.531c1.953 1.952 4.512 2.929 7.071 2.929s5.118-.977 7.071-2.929l21.21-21.21c3.905-3.905 3.905-10.237 0-14.143-3.906-3.904-10.236-3.904-14.143 0l-21.21 21.21c-3.905 3.906-3.905 10.238.001 14.143z"/><circle cx="256.001" cy="502" r="10"/></g></g></svg>